<?xml version="1.0" encoding="utf-8"?>
<!-- Generator: Adobe Illustrator 23.0.2, SVG Export Plug-In . SVG Version: 6.00 Build 0)  -->
<svg version="1.1" id="Layer_1" xmlns="http://www.w3.org/2000/svg" xmlns:xlink="http://www.w3.org/1999/xlink" x="0px" y="0px"
	 viewBox="0 0 20 20" style="enable-background:new 0 0 20 20;" xml:space="preserve">
<style type="text/css">
	.st0{fill:#FF0000;}
</style>
<path id="Path_951" class="st0" d="M20,10c0,5.52-4.48,10-10,10S0,15.52,0,10S4.48,0,10,0S20,4.48,20,10z M9.5,12h1
	c0.28,0,0.5-0.22,0.5-0.5v-6C11,5.22,10.78,5,10.5,5h-1C9.22,5,9,5.22,9,5.5v6C9,11.78,9.22,12,9.5,12z M10,13.5
	c-0.69,0-1.25,0.56-1.25,1.25S9.31,16,10,16s1.25-0.56,1.25-1.25S10.69,13.5,10,13.5z"/>
</svg>
