<?xml version="1.0" encoding="UTF-8"?>
<svg xmlns="http://www.w3.org/2000/svg" xmlns:xlink="http://www.w3.org/1999/xlink" width="16pt" height="16pt" viewBox="0 0 16 16" version="1.1">
<g id="surface1">
<path style=" stroke:none;fill-rule:nonzero;fill:rgb(0%,0%,0%);fill-opacity:1;" d="M 16 8 C 16 12.414062 12.414062 16 8 16 C 3.585938 16 0 12.414062 0 8 C 0 3.585938 3.585938 0 8 0 C 12.414062 0 16 3.585938 16 8 Z M 7.601562 9.601562 L 8.398438 9.601562 C 8.625 9.601562 8.800781 9.425781 8.800781 9.199219 L 8.800781 4.398438 C 8.800781 4.175781 8.625 4 8.398438 4 L 7.601562 4 C 7.375 4 7.199219 4.175781 7.199219 4.398438 L 7.199219 9.199219 C 7.199219 9.425781 7.375 9.601562 7.601562 9.601562 Z M 8 10.800781 C 7.449219 10.800781 7 11.246094 7 11.800781 C 7 12.351562 7.449219 12.800781 8 12.800781 C 8.550781 12.800781 9 12.351562 9 11.800781 C 9 11.246094 8.550781 10.800781 8 10.800781 Z M 8 10.800781 "/>
</g>
</svg>
