<?xml version="1.0" encoding="utf-8"?>
<!-- Generator: Adobe Illustrator 23.0.2, SVG Export Plug-In . SVG Version: 6.00 Build 0)  -->
<svg version="1.1" id="Layer_1" xmlns="http://www.w3.org/2000/svg" xmlns:xlink="http://www.w3.org/1999/xlink" x="0px" y="0px"
	 viewBox="0 0 120 120" style="enable-background:new 0 0 120 120;" xml:space="preserve">
<style type="text/css">
	.st0{fill:#00EDC2;}
</style>
<path id="Path_771_2_" class="st0" d="M47.98,87c-0.96,0-1.87-0.37-2.55-1.04l-20.35-20.1c-1.42-1.38-1.44-3.63-0.05-5.03
	c1.39-1.4,3.68-1.42,5.1-0.05c0.02,0.02,0.03,0.03,0.05,0.05l17.8,17.58l41.85-41.34c1.39-1.4,3.68-1.42,5.1-0.05
	c1.42,1.38,1.44,3.63,0.05,5.03c-0.02,0.02-0.03,0.03-0.05,0.05l-44.4,43.86C49.85,86.63,48.93,87,47.98,87z"/>
<path class="st0" d="M60,4c30.88,0,56,25.12,56,56s-25.12,56-56,56S4,90.88,4,60S29.12,4,60,4 M60,0C26.86,0,0,26.86,0,60
	s26.86,60,60,60s60-26.86,60-60S93.14,0,60,0L60,0z"/>
</svg>
